<?xml version="1.0" encoding="UTF-8"?>
<svg id="Calque_2" data-name="Calque 2" xmlns="http://www.w3.org/2000/svg" viewBox="0 0 387.87 161.29">
  <defs>
    <style>
      .cls-1, .cls-2 {
        stroke-width: 0px;
      }

      .cls-2 {
        fill: #006aeb;
      }
    </style>
  </defs>
  <g id="Calque_1-2" data-name="Calque 1">
    <path class="cls-1" d="m26.02,159.6H0l33.21-70.3c4.74-9.92,9.63-15.38,19.7-15.38s16.53,7.19,17.11,23.15l1.01,24.87,14.81-32.06c4.74-10.21,9.06-15.96,19.27-15.96s17.11,7.19,17.83,22.29l2.73,63.4h-25.3l.29-59.81-20.99,47.88c-3.31,7.48-7.05,12.94-15.53,12.94-7.48,0-12.37-5.46-12.51-14.95l-.43-47.01-25.16,60.96Z"/>
    <path class="cls-1" d="m125.97,159.57l15.38-71.6h25.3l-15.38,71.6h-25.3Zm17.54-90.86c0-7.48,6.18-13.51,13.95-13.51s13.8,6.04,13.8,13.51-6.04,13.66-13.8,13.66-13.95-6.04-13.95-13.66Z"/>
    <path class="cls-1" d="m223.35,74.02v24.3h-1.15c-9.49,0-22.86,2.01-22.86,26.6v34.65h-24.73v-84.54h23.58v10.35c5.17-7.05,12.94-11.36,24.58-11.36h.58Z"/>
    <path class="cls-1" d="m281.14,75.03h25.3v84.54h-24.15v-5.75c-4.46,4.89-11.36,7.48-19.12,7.48-18.26,0-31.48-12.22-31.48-32.06v-54.2h25.3v49.74c0,8.2,4.46,12.94,11.79,12.94s12.37-4.74,12.37-12.94v-49.74Z"/>
    <path class="cls-2" d="m347.99.68l4.59,23c.13.65.92.91,1.41.46l17.23-15.91c.68-.63,1.73.14,1.35.98l-9.81,21.31c-.28.6.21,1.27.87,1.2l23.3-2.74c.92-.11,1.32,1.13.51,1.58l-20.46,11.47c-.58.32-.58,1.16,0,1.48l20.46,11.47c.81.45.41,1.69-.51,1.58l-23.3-2.74c-.66-.08-1.15.6-.87,1.2l9.81,21.31c.39.84-.66,1.61-1.35.98l-17.23-15.91c-.49-.45-1.28-.19-1.41.46l-4.59,23c-.18.91-1.48.91-1.66,0l-4.59-23c-.13-.65-.92-.91-1.41-.46l-17.23,15.91c-.68.63-1.73-.14-1.35-.98l9.81-21.31c.28-.6-.21-1.27-.87-1.2l-23.3,2.74c-.92.11-1.32-1.13-.51-1.58l20.46-11.47c.58-.32.58-1.16,0-1.48l-20.46-11.47c-.81-.45-.41-1.69.51-1.58l23.3,2.74c.66.08,1.15-.6.87-1.2l-9.81-21.31c-.39-.84.66-1.61,1.35-.98l17.23,15.91c.49.45,1.28.19,1.41-.46l4.59-23c.18-.91,1.48-.91,1.66,0Z"/>
  </g>
</svg>