<?xml version="1.0" encoding="UTF-8"?>
<svg id="Calque_2" data-name="Calque 2" xmlns="http://www.w3.org/2000/svg" viewBox="0 -22 229.38 263.72">
  <defs>
    <style>
      svg {
        overflow: visible;
      }
      .anim-1 {
        animation: hero-anim-1 3s;
        animation-iteration-count: infinite;
        animation-direction: alternate;
      }

      .timing-1 {
        animation-delay: -1s;
      }
      .timing-2 {
        animation-delay: -0.5s;
        animation-duration: 4s;
      }
      .timing-3 {
        animation-delay: -0.5s;
        animation-duration: 5s;
      }

      @keyframes hero-anim-1 {
        from {
          translate: 0 -40px;
        }
        to {
          translate: 0 10px;
        }
      }

      .cls-1 {
        opacity: .3;
      }

      .cls-1, .cls-2 {
        fill: #c7f1ff;
      }

      .cls-1, .cls-2, .cls-3, .cls-4 {
        stroke-width: 0px;
      }

      .cls-3 {
        fill: #0061da;
      }

      .cls-4 {
        fill: #006aeb;
      }
    </style>
  </defs>
  <g id="Calque_1-2" data-name="Calque 1">
    <path class="cls-2" d="m129.7,83.81v-46.06c0-.82.69-1.46,1.51-1.38,9.34.96,59.75,7.38,83.86,36.25.21.26.33.58.33.91v51.15c0,1.3-1.62,1.89-2.45.88-7.18-8.8-31.01-32.8-82.07-40.4-.67-.1-1.18-.68-1.18-1.36Z"/>
    <path class="cls-2" d="m87.61,12.5v12.06c0,.85.75,1.5,1.58,1.37,5.82-.91,26.7-3.69,46.38-.05.85.16,1.63-.48,1.63-1.34v-12.1c0-.68-.47-1.26-1.15-1.36-4.44-.69-21.51-2.83-47.19.05-.7.08-1.25.68-1.25,1.38Z"/>
    <path class="cls-2" d="m36.63,98.9v-37.09c0-.51.28-.98.73-1.22,3.95-2.07,23.33-11.77,46.96-15.51.84-.13,1.61.53,1.61,1.38v34.15c0,.7-.52,1.3-1.21,1.37-3.93.42-17.72,2.95-46.04,18.12-.92.49-2.05-.16-2.05-1.2Z"/>
    <circle class="cls-4 anim-1" cx="125.04" cy="150.67" r="10.63"/>
    <polygon class="cls-4 anim-1 timing-1" points="188.14 115.66 173.97 132.45 197.06 136.4 188.14 115.66"/>
    <path class="cls-4 anim-1 timing-2" d="m69.69,95.33l2.23,11.15c.06.31.45.44.68.22l8.36-7.72c.33-.31.84.07.65.47l-4.76,10.33c-.13.29.1.62.42.58l11.3-1.33c.45-.05.64.55.25.77l-9.92,5.56c-.28.16-.28.56,0,.72l9.92,5.56c.39.22.2.82-.25.77l-11.3-1.33c-.32-.04-.56.29-.42.58l4.76,10.33c.19.41-.32.78-.65.47l-8.36-7.72c-.24-.22-.62-.09-.68.22l-2.23,11.15c-.09.44-.72.44-.81,0l-2.23-11.15c-.06-.31-.45-.44-.68-.22l-8.36,7.72c-.33.31-.84-.07-.65-.47l4.76-10.33c.13-.29-.1-.62-.42-.58l-11.3,1.33c-.45.05-.64-.55-.25-.77l9.92-5.56c.28-.16.28-.56,0-.72l-9.92-5.56c-.39-.22-.2-.82.25-.77l11.3,1.33c.32.04.56-.29.42-.58l-4.76-10.33c-.19-.41.32-.78.65-.47l8.36,7.72c.24.22.62.09.68-.22l2.23-11.15c.09-.44.72-.44.81,0Z"/>
    <path class="cls-4 anim-1 timing-3" d="m134.69,18.33l2.23,11.15c.06.31.45.44.68.22l8.36-7.72c.33-.31.84.07.65.47l-4.76,10.33c-.13.29.1.62.42.58l11.3-1.33c.45-.05.64.55.25.77l-9.92,5.56c-.28.16-.28.56,0,.72l9.92,5.56c.39.22.2.82-.25.77l-11.3-1.33c-.32-.04-.56.29-.42.58l4.76,10.33c.19.41-.32.78-.65.47l-8.36-7.72c-.24-.22-.62-.09-.68.22l-2.23,11.15c-.09.44-.72.44-.81,0l-2.23-11.15c-.06-.31-.45-.44-.68-.22l-8.36,7.72c-.33.31-.84-.07-.65-.47l4.76-10.33c.13-.29-.1-.62-.42-.58l-11.3,1.33c-.45.05-.64-.55-.25-.77l9.92-5.56c.28-.16.28-.56,0-.72l-9.92-5.56c-.39-.22-.2-.82.25-.77l11.3,1.33c.32.04.56-.29.42-.58l-4.76-10.33c-.19-.41.32-.78.65-.47l8.36,7.72c.24.22.62.09.68-.22l2.23-11.15c.09-.44.72-.44.81,0Z"/>
    <path class="cls-2" d="m6.97,48.49v16.67c0,1.19,1.39,1.83,2.29,1.04,3.47-3.07,10.28-8.66,16.3-10.83.55-.2.91-.7.91-1.28v-16c0-.96-.95-1.62-1.85-1.3-2.97,1.05-9.27,3.86-17.15,10.62-.31.26-.49.66-.49,1.07Z"/>
    <path class="cls-2" d="m177.4,1.39v36.61c0,.57.34,1.07.87,1.28,4.95,1.94,30.06,12.32,47.27,30.07.87.9,2.39.32,2.39-.94V27.99c0-.38-.14-.74-.42-1-2.8-2.6-19.38-17.26-48.26-26.92-.9-.3-1.84.37-1.84,1.32Z"/>
    <g>
      <path class="cls-1" d="m151.56,200.47c0,.83-.67,1.51-1.51,1.51l-71.48-10.38c-.83,0-1.51-.67-1.51-1.51V29.03c0-.83.68-1.51,1.51-1.51l71.48,10.38c.83,0,1.51.67,1.51,1.51v161.07Z"/>
      <g>
        <path class="cls-3" d="m154.52,212.6c3.65,0,10.77-3.36,10.88-8.72l.65-174.07c0-3.65-2.96-6.62-6.62-6.62l-79.16-9.14c-7.32,0-11.75,6.23-11.75,9.89l15.96-1.62,71.48,10.38c.83,0,1.51.67,1.51,1.51v161.07c0,.83-.67,1.51-1.51,1.51l-1.44,15.82Z"/>
        <path class="cls-4" d="m153.53,28.4l-78.42-10.38c-3.65,0-6.62,2.96-6.62,6.62v171.14c0,3.65,2.96,6.62,6.62,6.62l78.42,10.38c3.65,0,6.62-2.96,6.62-6.62V35.01c0-3.65-2.96-6.62-6.62-6.62Zm-1.96,172.08c0,.83-.67,1.51-1.51,1.51l-71.48-10.38c-.83,0-1.51-.67-1.51-1.51V29.03c0-.83.68-1.51,1.51-1.51l71.48,10.38c.83,0,1.51.67,1.51,1.51v161.07Z"/>
        <path class="cls-4" d="m89.15,25.32l9.05,8.6c1.18,1.12,2.79,1.86,4.53,2.07l20.72,3.03c1.71.21,3.43-.09,4.83-.86l11.19-6.11-50.32-6.74Z"/>
      </g>
    </g>
    <path class="cls-2" d="m0,98.15v58.7c0,.31.1.6.29.85,2.93,3.71,28.02,33.93,75.47,47.15.88.25,1.77-.43,1.77-1.34v-56.77c0-.59-.36-1.11-.92-1.3-6.81-2.36-49.95-18.19-74.14-48.13-.83-1.02-2.47-.47-2.47.84Z"/>
    <path class="cls-2" d="m85.94,171.44l1.43,68.86c.02.74.6,1.33,1.34,1.35,11.03.34,89.06,1.09,140.19-43.64.3-.27.48-.65.48-1.06v-72.4c0-1.19-1.4-1.83-2.29-1.04-10.54,9.37-57.45,46.42-139.77,46.53-.77,0-1.4.63-1.38,1.4Z"/>
    <polygon class="cls-2" points="62.07 .43 56.05 26.13 82.92 17.78 62.07 .43"/>
  </g>
</svg>