<svg xmlns="http://www.w3.org/2000/svg" xml:space="preserve" width="48" height="48" viewBox="0 0 12.7 12.7"><path d="m10.517 4.427.681 3.415c.02.096.137.135.21.068l2.558-2.362c.1-.094.256.02.2.145L12.71 8.857a.126.126 0 0 0 .129.178l3.459-.407c.136-.016.196.168.076.235l-3.038 1.703a.126.126 0 0 0 0 .22l3.038 1.702c.12.067.06.251-.076.235l-3.46-.407a.126.126 0 0 0-.128.178l1.456 3.164c.058.125-.098.24-.2.146l-2.558-2.362a.126.126 0 0 0-.21.068l-.681 3.414c-.027.136-.22.136-.247 0L9.59 13.51a.126.126 0 0 0-.21-.068l-2.557 2.362c-.101.093-.257-.021-.2-.146l1.456-3.164a.126.126 0 0 0-.13-.178l-3.459.407c-.136.016-.196-.168-.075-.235l3.037-1.702a.126.126 0 0 0 0-.22L4.414 8.863c-.12-.067-.061-.25.075-.235l3.46.407c.097.012.17-.089.129-.178L6.62 5.693c-.058-.124.098-.239.2-.145L9.38 7.91c.072.067.19.028.209-.068l.681-3.415c.027-.135.22-.135.247 0" style="fill:#006aeb;stroke-width:0" transform="translate(-4.044 -4.326)"/></svg>