<?xml version="1.0" encoding="UTF-8"?>
<svg id="Calque_2" data-name="Calque 2" xmlns="http://www.w3.org/2000/svg" viewBox="0 0 287.66 189.36">
  <defs>
    <style>
      .cls-1 {
        fill: none;
        stroke: #000;
        stroke-miterlimit: 10;
      }

      .cls-2 {
        fill: #c7f1ff;
      }

      .cls-2, .cls-3 {
        stroke-width: 0px;
      }

      .cls-3 {
        fill: #006aeb;
      }
    </style>
  </defs>
  <g id="Calque_1-2" data-name="Calque 1">
    <path class="cls-2" d="m36.21,47.3l2.15,10.76c.06.3.43.42.66.21l8.06-7.44c.32-.29.81.06.63.46l-4.59,9.97c-.13.28.1.6.41.56l10.9-1.28c.43-.05.62.53.24.74l-9.57,5.37c-.27.15-.27.54,0,.69l9.57,5.37c.38.21.19.79-.24.74l-10.9-1.28c-.31-.04-.54.28-.41.56l4.59,9.97c.18.39-.31.75-.63.46l-8.06-7.44c-.23-.21-.6-.09-.66.21l-2.15,10.76c-.08.43-.69.43-.78,0l-2.15-10.76c-.06-.3-.43-.42-.66-.21l-8.06,7.44c-.32.29-.81-.06-.63-.46l4.59-9.97c.13-.28-.1-.6-.41-.56l-10.9,1.28c-.43.05-.62-.53-.24-.74l9.57-5.37c.27-.15.27-.54,0-.69l-9.57-5.37c-.38-.21-.19-.79.24-.74l10.9,1.28c.31.04.54-.28.41-.56l-4.59-9.97c-.18-.39.31-.75.63-.46l8.06,7.44c.23.21.6.09.66-.21l2.15-10.76c.08-.43.69-.43.78,0Z"/>
    <circle class="cls-3" cx="245.88" cy="16.85" r="8.51"/>
    <circle class="cls-2" cx="145.55" cy="70" r="70"/>
    <path class="cls-2" d="m56.23,189.36c0-38.32,39.99-69.38,89.32-69.38s89.32,31.06,89.32,69.38"/>
    <path class="cls-1" d="m186.56,29.38c11.52-5.95,23.44-11.13,35.65-15.49"/>
    <path class="cls-1" d="m196.31,39.02c3.99-1.14,7.99-2.27,11.98-3.41"/>
    <path class="cls-1" d="m195.51,50.19c10.57-2.38,21.2-4.44,31.9-6.16"/>
    <path class="cls-1" d="m98.84,27.49c-11.52-5.95-23.44-11.13-35.65-15.49"/>
    <path class="cls-1" d="m89.09,37.13c-3.99-1.14-7.99-2.27-11.98-3.41"/>
    <path class="cls-1" d="m89.89,48.3c-10.57-2.38-21.2-4.44-31.9-6.16"/>
    <g>
      <path class="cls-3" d="m.23,146.81h0c1.51,8.9,9.94,14.89,18.84,13.38l35.04-5.94c8.9-1.51,14.89-9.94,13.38-18.84h0c-1.51-8.9-9.94-14.89-18.84-13.38l-35.04,5.94c-8.9,1.51-14.89,9.94-13.38,18.84Zm50.83-.75l-31.81,5.39c-4.22.72-8.22-2.13-8.94-6.35h0c-.72-4.22,2.13-8.22,6.35-8.94l31.81-5.39c4.22-.72,8.22,2.13,8.94,6.35h0c.72,4.22-2.13,8.22-6.35,8.94Z"/>
      <rect class="cls-3" x="51.84" y="130.17" width="36.81" height="9.54" rx="1.7" ry="1.7" transform="translate(-21.57 13.64) rotate(-9.62)"/>
      <path class="cls-3" d="m111.89,93.44l26.92,8.82c.39.13.63-.43.27-.62l-25.14-13.65c-.18-.1-.41-.01-.48.18l-1.78,4.83c-.07.18.03.38.21.44Z"/>
      <path class="cls-3" d="m137.44,64.73l6.93,27.47c.1.4.7.31.67-.11l-1.89-28.54c-.01-.21-.21-.35-.41-.31l-5.03,1.08c-.19.04-.31.23-.26.42Z"/>
      <path class="cls-3" d="m171.42,74.9l-16.55,22.98c-.24.34.21.73.51.44l20.62-19.83c.15-.14.14-.39-.03-.51l-4.07-3.16c-.15-.12-.37-.09-.49.07Z"/>
      <path class="cls-3" d="m187.68,146.52l-26.92-8.82c-.39-.13-.63.43-.27.62l25.14,13.65c.18.1.41.01.48-.18l1.78-4.83c.07-.18-.03-.38-.21-.44Z"/>
      <path class="cls-3" d="m162.13,175.24l-6.93-27.47c-.1-.4-.7-.31-.67.11l1.89,28.54c.01.21.21.35.41.31l5.03-1.08c.19-.04.31-.23.26-.42Z"/>
      <path class="cls-3" d="m128.16,165.06l16.55-22.98c.24-.34-.21-.73-.51-.44l-20.62,19.83c-.15.14-.14.39.03.51l4.07,3.16c.15.12.37.09.49-.07Z"/>
      <path class="cls-3" d="m120.82,134.24l-30.03,5.09c-4.22.72-8.22-2.13-8.94-6.35s2.13-8.23,6.35-8.94l30.02-5.09-1.45-8.46-31.62,5.36c-8.9,1.51-14.89,9.94-13.38,18.84h0c1.51,8.9,9.94,14.89,18.84,13.38l31.66-5.37-1.45-8.46Z"/>
      <path class="cls-3" d="m268.49,81.94l-35.01,6.16c-8.89,1.56-14.82,10.04-13.26,18.93h0c1.56,8.89,10.04,14.82,18.93,13.26l35.01-6.16c8.89-1.56,14.82-10.04,13.26-18.93h0c-1.56-8.89-10.04-14.82-18.93-13.26Zm-38.2,23.31h0c-.74-4.22,2.07-8.24,6.29-8.98l31.78-5.59c4.22-.74,8.24,2.07,8.98,6.29h0c.74,4.22-2.07,8.24-6.29,8.98l-31.78,5.59c-4.22.74-8.24-2.07-8.98-6.29Z"/>
      <rect class="cls-3" x="199.06" y="102.74" width="36.81" height="9.54" rx="1.7" ry="1.7" transform="translate(450.28 175.7) rotate(170.02)"/>
      <path class="cls-3" d="m169.6,123.81l30-5.28c4.22-.74,7.03-4.76,6.29-8.98s-4.76-7.03-8.98-6.29l-29.98,5.28-1.48-8.46,31.59-5.56c8.89-1.56,17.36,4.37,18.93,13.26h0c1.56,8.89-4.37,17.36-13.26,18.93l-31.63,5.57-1.48-8.46Z"/>
    </g>
  </g>
</svg>