<?xml version="1.0" encoding="UTF-8"?>
<svg id="Calque_2" data-name="Calque 2" xmlns="http://www.w3.org/2000/svg" viewBox="0 0 338.6 250.33">
  <defs>
    <style>
      .cls-1 {
        fill: none;
        stroke: #000;
        stroke-miterlimit: 10;
      }

      .cls-2 {
        fill: #c7f1ff;
      }

      .cls-2, .cls-3 {
        stroke-width: 0px;
      }

      .cls-3 {
        fill: #006aeb;
      }
    </style>
  </defs>
  <g id="Calque_1-2" data-name="Calque 1">
    <g>
      <path class="cls-2" d="m198.08,228.76c0-25.88,27-46.85,60.32-46.85s60.32,20.98,60.32,46.85"/>
      <path class="cls-2" d="m258.4,103.96c-24.83,0-44.97,20.13-44.97,44.97s20.13,44.97,44.97,44.97,44.97-20.13,44.97-44.97-20.13-44.97-44.97-44.97Zm-10.16,62.29l20.31-7.54s-3.19,17.16-20.31,7.54Z"/>
    </g>
    <g>
      <path class="cls-2" d="m.07,228.76c0-25.88,27-46.85,60.32-46.85s60.32,20.98,60.32,46.85"/>
      <path class="cls-2" d="m60.39,103.96c-24.83,0-44.97,20.13-44.97,44.97s20.13,44.97,44.97,44.97,44.97-20.13,44.97-44.97-20.13-44.97-44.97-44.97Zm-11.91,54.76l20.31,7.54c-17.12,9.62-20.31-7.54-20.31-7.54Z"/>
    </g>
    <circle class="cls-3" cx="161.12" cy="131.06" r="69.95"/>
    <path class="cls-3" d="m71.86,250.33c0-38.29,39.96-69.33,89.26-69.33s89.26,31.04,89.26,69.33"/>
    <path class="cls-1" d="m108.91,100.78c-9.95-1.96-16.93-12-17.67-22.11-.26-3.5.12-7.11,1.62-10.29,2.29-4.86,6.95-8.23,11.86-10.39,4.39-1.94,9.3-3.09,14-2.14,4.7.96,9.09,4.38,10.18,9.05s-2.03,10.2-6.79,10.83c-4.98.66-9.44-4.13-9.95-9.13-.51-5,1.95-9.84,5.02-13.82,1.65-2.14,3.52-4.14,5.74-5.68,6.31-4.37,14.66-4.45,22.2-3.05,6.57,1.22,12.95,3.44,18.86,6.57,4.58,2.42,9.13,5.71,10.87,10.6,1.52,4.3.43,9.41-2.71,12.71-.72.75-1.59,1.44-2.62,1.54-2.19.22-3.69-2.18-4.21-4.31-1.72-6.94,1.15-14.66,6.62-19.26s13.23-6.14,20.21-4.56,13.14,6.06,17.32,11.86c2.86,3.97,4.87,8.65,5.22,13.53.34,4.88-1.09,9.98-4.36,13.62-1.62,1.8-3.77,3.27-6.18,3.51s-5.06-.98-5.96-3.24c-.78-1.97-.12-4.25,1.06-6.01,3.74-5.58,12.36-6.56,17.89-2.76s7.84,11.28,6.51,17.86c-1.33,6.58-5.8,12.22-11.27,16.11"/>
    <polygon class="cls-2" points="18.93 66.92 0 89.36 30.85 94.64 18.93 66.92"/>
    <circle class="cls-2" cx="328" cy="111.84" r="10.59"/>
    <path class="cls-3" d="m238.26.43l2.92,14.62c.08.41.58.58.89.29l10.95-10.11c.43-.4,1.1.09.85.62l-6.23,13.54c-.18.38.13.81.55.76l14.8-1.74c.59-.07.84.72.33,1l-13,7.29c-.37.21-.37.73,0,.94l13,7.29c.51.29.26,1.07-.33,1l-14.8-1.74c-.42-.05-.73.38-.55.76l6.23,13.54c.25.54-.42,1.02-.85.62l-10.95-10.11c-.31-.29-.81-.12-.89.29l-2.92,14.62c-.12.58-.94.58-1.06,0l-2.92-14.62c-.08-.41-.58-.58-.89-.29l-10.95,10.11c-.43.4-1.1-.09-.85-.62l6.23-13.54c.18-.38-.13-.81-.55-.76l-14.8,1.74c-.59.07-.84-.72-.33-1l13-7.29c.37-.21.37-.73,0-.94l-13-7.29c-.51-.29-.26-1.07.33-1l14.8,1.74c.42.05.73-.38.55-.76l-6.23-13.54c-.25-.54.42-1.02.85-.62l10.95,10.11c.31.29.81.12.89-.29l2.92-14.62c.12-.58.94-.58,1.06,0Z"/>
  </g>
</svg>