<?xml version="1.0" encoding="UTF-8"?>
<svg id="Calque_2" data-name="Calque 2" xmlns="http://www.w3.org/2000/svg" viewBox="0 0 223.23 237.5">
  <defs>
    <style>
      .cls-1 {
        fill: none;
        stroke: #000;
        stroke-miterlimit: 10;
      }

      .cls-2 {
        fill: #c7f1ff;
      }

      .cls-2, .cls-3 {
        stroke-width: 0px;
      }

      .cls-3 {
        fill: #006aeb;
      }
    </style>
  </defs>
  <g id="Calque_1-2" data-name="Calque 1">
    <circle class="cls-2" cx="89.14" cy="92.04" r="69.86"/>
    <path class="cls-2" d="m0,211.16c0-38.24,39.91-69.24,89.14-69.24s89.14,31,89.14,69.24"/>
    <path class="cls-3" d="m80.66,121.77c1.44,23.12,10.93,73.27,63.06,113.18,4.51,3.45,10.78,3.39,15.21-.15,53.37-42.57,63.42-75.48,64.3-113.78.15-6.48-4.76-11.97-11.22-12.54-26.37-2.34-33.44-2.23-55.19-9.29-2.48-.8-5.16-.81-7.63,0-23.62,7.79-35.67,9.02-56.56,9.56-6.95.18-12.4,6.08-11.97,13.01Z"/>
    <path class="cls-2" d="m164.68,158.12c0-7.08-5.74-12.82-12.82-12.82s-12.82,5.74-12.82,12.82c0,4.52,2.35,8.49,5.89,10.77v17.38c0,3.83,3.1,6.93,6.93,6.93h0c3.83,0,6.93-3.1,6.93-6.93v-17.38c3.54-2.28,5.89-6.25,5.89-10.77Z"/>
    <path class="cls-1" d="m33.04,69.47c-9.69-10.67-9.6-28.18-1.39-40.03,8.21-11.84,23.11-18.04,37.52-17.75,4.03.08,8.46.83,11,3.96,1.85,2.28,2.3,5.41,2.08,8.34-.31,4-1.99,8.15-5.41,10.23-3.42,2.09-8.7,1.17-10.32-2.5-2.36-5.36,3.83-10.34,9.06-12.96,14.78-7.41,29.85-14.92,46.18-17.5,9.62-1.52,20.14-1.09,28.15,4.45,3.61,2.5,6.66,5.71,6.76,10.1s-3.15,5.84-8.18,8.68c5.16-1.52,11.52,1.7,12.94,7.12,1.42,5.42-1.24,11.29-5.4,15.04-4.16,3.75-9.59,5.75-14.97,7.31"/>
  </g>
</svg>