<?xml version="1.0" encoding="UTF-8"?>
<svg id="Calque_2" data-name="Calque 2" xmlns="http://www.w3.org/2000/svg" viewBox="0 0 249.32 287.89">
  <defs>
    <style>
      .cls-1 {
        fill: none;
        stroke: #fff;
        stroke-miterlimit: 10;
      }

      .cls-2, .cls-3, .cls-4 {
        stroke-width: 0px;
      }

      .cls-3 {
        fill: #c7f1ff;
      }

      .cls-4 {
        fill: #006aeb;
      }
    </style>
  </defs>
  <g id="Calque_1-2" data-name="Calque 1">
    <polygon class="cls-3" points="249.32 215.91 249.32 71.97 124.66 0 0 71.97 0 215.91 124.66 287.89 249.32 215.91"/>
    <path class="cls-2" d="m47.02,174.91h-12.03l15.35-32.5c2.19-4.59,4.45-7.11,9.11-7.11s7.64,3.32,7.91,10.7l.47,11.5,6.85-14.82c2.19-4.72,4.19-7.38,8.91-7.38s7.91,3.32,8.24,10.3l1.26,29.31h-11.7l.13-27.65-9.7,22.13c-1.53,3.46-3.26,5.98-7.18,5.98-3.46,0-5.72-2.53-5.78-6.91l-.2-21.74-11.63,28.18Z"/>
    <path class="cls-2" d="m93.23,174.89l7.11-33.1h11.7l-7.11,33.1h-11.7Zm8.11-42.01c0-3.46,2.86-6.25,6.45-6.25s6.38,2.79,6.38,6.25-2.79,6.31-6.38,6.31-6.45-2.79-6.45-6.31Z"/>
    <g>
      <path class="cls-2" d="m138.26,135.34v11.23h-.53c-4.39,0-10.57.93-10.57,12.3v16.02h-11.43v-39.09h10.9v4.79c2.39-3.26,5.98-5.25,11.37-5.25h.27Z"/>
      <path class="cls-2" d="m164.98,135.81h11.7v39.09h-11.17v-2.66c-2.06,2.26-5.25,3.46-8.84,3.46-8.44,0-14.56-5.65-14.56-14.82v-25.06h11.7v23c0,3.79,2.06,5.98,5.45,5.98s5.72-2.19,5.72-5.98v-23Z"/>
    </g>
    <path class="cls-4" d="m195.88,101.43l2.12,10.64c.06.3.43.42.65.21l7.97-7.36c.31-.29.8.06.62.45l-4.54,9.85c-.13.28.1.59.4.55l10.77-1.27c.43-.05.61.52.24.73l-9.46,5.3c-.27.15-.27.53,0,.68l9.46,5.3c.37.21.19.78-.24.73l-10.77-1.27c-.3-.04-.53.28-.4.55l4.54,9.85c.18.39-.31.74-.62.45l-7.97-7.36c-.22-.21-.59-.09-.65.21l-2.12,10.64c-.08.42-.69.42-.77,0l-2.12-10.64c-.06-.3-.43-.42-.65-.21l-7.97,7.36c-.31.29-.8-.06-.62-.45l4.54-9.85c.13-.28-.1-.59-.4-.55l-10.77,1.27c-.43.05-.61-.52-.24-.73l9.46-5.3c.27-.15.27-.53,0-.68l-9.46-5.3c-.37-.21-.19-.78.24-.73l10.77,1.27c.3.04.53-.28.4-.55l-4.54-9.85c-.18-.39.31-.74.62-.45l7.97,7.36c.22.21.59.09.65-.21l2.12-10.64c.08-.42.69-.42.77,0Z"/>
    <polygon class="cls-1" points="236.68 208.62 236.68 79.26 124.66 14.59 12.63 79.26 12.63 208.62 124.66 273.3 236.68 208.62"/>
  </g>
</svg>