<?xml version="1.0" encoding="UTF-8"?>
<svg id="Calque_2" data-name="Calque 2" xmlns="http://www.w3.org/2000/svg" viewBox="0 0 251.42 290.31">
  <defs>
    <style>
      .cls-1 {
        fill: #fff;
        stroke: #006aeb;
        stroke-miterlimit: 10;
        stroke-width: 2px;
      }

      .cls-2, .cls-3, .cls-4, .cls-5, .cls-6 {
        stroke-width: 0px;
      }

      .cls-3 {
        opacity: .3;
      }

      .cls-3, .cls-4 {
        fill: #c7f1ff;
      }

      .cls-5 {
        fill: #0061da;
      }

      .cls-6 {
        fill: #006aeb;
      }
    </style>
  </defs>
  <g id="Calque_1-2" data-name="Calque 1">
    <polygon class="cls-1" points="250.42 217.15 250.42 73.15 125.71 1.15 1 73.15 1 217.15 125.71 289.15 250.42 217.15"/>
    <path class="cls-4" d="m70.42,119.14v-23.76c0-.33.18-.63.47-.78,2.53-1.33,14.95-7.54,30.09-9.94.54-.09,1.03.34,1.03.88v21.88c0,.45-.33.83-.78.88-2.52.27-11.36,1.89-29.5,11.61-.59.32-1.31-.1-1.31-.77Z"/>
    <path class="cls-4" d="m130.05,109.47v-29.51c0-.52.44-.94.96-.88,5.98.61,38.29,4.73,53.73,23.23.14.16.21.37.21.59v32.77c0,.83-1.04,1.21-1.57.56-4.6-5.64-19.87-21.02-52.58-25.88-.43-.06-.76-.43-.76-.87Z"/>
    <path class="cls-4" d="m51.41,86.84v10.68c0,.76.89,1.17,1.47.67,2.22-1.97,6.59-5.55,10.44-6.94.35-.13.59-.45.59-.82v-10.25c0-.62-.61-1.04-1.19-.83-1.9.68-5.94,2.47-10.99,6.81-.2.17-.32.42-.32.68Z"/>
    <path class="cls-4" d="m103.08,63.78v7.72c0,.54.48.96,1.01.88,3.73-.59,17.11-2.36,29.71-.03.54.1,1.04-.31,1.04-.86v-7.75c0-.44-.3-.81-.74-.87-2.84-.44-13.78-1.81-30.24.03-.45.05-.8.43-.8.88Z"/>
    <path class="cls-4" d="m160.61,56.66v23.45c0,.36.22.69.55.82,3.17,1.24,19.26,7.89,30.29,19.27.56.58,1.53.2,1.53-.6v-25.9c0-.25-.09-.47-.27-.64-1.79-1.67-12.42-11.06-30.92-17.25-.57-.19-1.18.24-1.18.84Z"/>
    <g>
      <path class="cls-3" d="m144.06,184.22c0,.53-.43.97-.97.97l-45.8-6.65c-.53,0-.97-.43-.97-.97v-103.2c0-.53.43-.97.97-.97l45.8,6.65c.53,0,.97.43.97.97v103.2Z"/>
      <g>
        <path class="cls-5" d="m145.95,191.99c2.34,0,6.9-2.15,6.97-5.59l.42-111.53c0-2.34-1.9-4.24-4.24-4.24l-50.72-5.86c-4.69,0-7.53,3.99-7.53,6.34l10.22-1.04,45.8,6.65c.53,0,.97.43.97.97v103.2c0,.53-.43.97-.97.97l-.92,10.14Z"/>
        <path class="cls-6" d="m145.31,73.96l-50.25-6.65c-2.34,0-4.24,1.9-4.24,4.24v109.65c0,2.34,1.9,4.24,4.24,4.24l50.25,6.65c2.34,0,4.24-1.9,4.24-4.24v-109.65c0-2.34-1.9-4.24-4.24-4.24Zm-1.26,110.25c0,.53-.43.97-.97.97l-45.8-6.65c-.53,0-.97-.43-.97-.97v-103.2c0-.53.43-.97.97-.97l45.8,6.65c.53,0,.97.43.97.97v103.2Z"/>
        <path class="cls-6" d="m104.07,71.99l5.8,5.51c.75.72,1.79,1.19,2.9,1.33l13.28,1.94c1.1.14,2.2-.06,3.1-.55l7.17-3.91-32.24-4.32Z"/>
      </g>
    </g>
    <path class="cls-4" d="m46.95,118.66v37.61c0,.2.06.39.19.54,1.88,2.37,17.95,21.74,48.35,30.21.57.16,1.14-.27,1.14-.86v-36.37c0-.38-.23-.71-.59-.83-4.36-1.51-32-11.65-47.51-30.84-.53-.66-1.59-.3-1.59.54Z"/>
    <path class="cls-4" d="m102.01,165.62l.92,44.12c0,.47.39.85.86.87,7.06.22,57.06.7,89.83-27.96.2-.17.31-.42.31-.68v-46.39c0-.76-.9-1.17-1.47-.67-6.76,6-36.81,29.74-89.56,29.81-.49,0-.9.4-.89.9Z"/>
    <path class="cls-2" d="m71.08,234.55h-9.65l12.32-26.08c1.76-3.68,3.57-5.71,7.31-5.71s6.13,2.67,6.35,8.59l.37,9.23,5.49-11.9c1.76-3.79,3.36-5.92,7.15-5.92s6.35,2.67,6.61,8.27l1.01,23.52h-9.39l.11-22.19-7.79,17.76c-1.23,2.77-2.61,4.8-5.76,4.8-2.77,0-4.59-2.03-4.64-5.55l-.16-17.44-9.34,22.62Z"/>
    <path class="cls-2" d="m108.16,234.54l5.71-26.56h9.39l-5.71,26.56h-9.39Zm6.51-33.71c0-2.77,2.29-5.01,5.17-5.01s5.12,2.24,5.12,5.01-2.24,5.07-5.12,5.07-5.17-2.24-5.17-5.07Z"/>
    <g>
      <path class="cls-2" d="m144.29,202.8v9.01h-.43c-3.52,0-8.48.75-8.48,9.87v12.86h-9.17v-31.36h8.75v3.84c1.92-2.61,4.8-4.21,9.12-4.21h.21Z"/>
      <path class="cls-2" d="m165.73,203.18h9.39v31.36h-8.96v-2.13c-1.65,1.81-4.21,2.77-7.09,2.77-6.77,0-11.68-4.53-11.68-11.9v-20.11h9.39v18.46c0,3.04,1.65,4.8,4.37,4.8s4.59-1.76,4.59-4.8v-18.46Z"/>
    </g>
    <path class="cls-6" d="m190.53,175.59l1.7,8.54c.05.24.34.34.52.17l6.39-5.9c.25-.23.64.05.5.36l-3.64,7.91c-.1.22.08.47.32.44l8.64-1.02c.34-.04.49.42.19.59l-7.59,4.26c-.21.12-.21.43,0,.55l7.59,4.26c.3.17.15.63-.19.59l-8.64-1.02c-.24-.03-.43.22-.32.44l3.64,7.91c.14.31-.25.6-.5.36l-6.39-5.9c-.18-.17-.47-.07-.52.17l-1.7,8.54c-.07.34-.55.34-.62,0l-1.7-8.54c-.05-.24-.34-.34-.52-.17l-6.39,5.9c-.25.23-.64-.05-.5-.36l3.64-7.91c.1-.22-.08-.47-.32-.44l-8.64,1.02c-.34.04-.49-.42-.19-.59l7.59-4.26c.21-.12.21-.43,0-.55l-7.59-4.26c-.3-.17-.15-.63.19-.59l8.64,1.02c.24.03.43-.22.32-.44l-3.64-7.91c-.14-.31.25-.6.5-.36l6.39,5.9c.18.17.47.07.52-.17l1.7-8.54c.07-.34.55-.34.62,0Z"/>
  </g>
</svg>