<?xml version="1.0" encoding="UTF-8"?>
<svg id="Calque_2" data-name="Calque 2" xmlns="http://www.w3.org/2000/svg" viewBox="0 0 291.91 243.85">
  <defs>
    <style>
      .cls-1, .cls-2, .cls-3 {
        stroke-width: 0px;
      }

      .cls-2 {
        fill: #c7f1ff;
      }

      .cls-3 {
        fill: #006aeb;
      }
    </style>
  </defs>
  <g id="Calque_1-2" data-name="Calque 1">
    <path class="cls-3" d="m90.74,243.85c0-23.69,24.72-42.89,55.22-42.89s55.22,19.2,55.22,42.89"/>
    <rect class="cls-3" y="36.22" width="291.91" height="175.86" rx="1.42" ry="1.42"/>
    <rect class="cls-2" x="4.91" y="41.37" width="282.09" height="164.88" rx=".68" ry=".68"/>
    <circle class="cls-3" cx="19.91" cy="179.24" r="10.12"/>
    <polygon class="cls-3" points="145.95 59.46 157 89.29 185.91 76.01 172.62 104.92 202.46 115.96 172.62 127.01 185.91 155.92 157 142.63 145.95 172.47 134.91 142.63 106 155.92 119.28 127.01 89.45 115.96 119.28 104.92 106 76.01 134.91 89.29 145.95 59.46"/>
    <rect class="cls-1" x="34.2" y="74.98" width="38.27" height="5.81" rx="2.11" ry="2.11"/>
    <rect class="cls-1" x="34.2" y="94.04" width="28.52" height="5.81" rx="2.11" ry="2.11"/>
    <rect class="cls-1" x="34.2" y="84.51" width="118.24" height="5.81" rx="2.11" ry="2.11"/>
    <rect class="cls-1" x="138.12" y="74.98" width="38.27" height="5.81" rx="2.11" ry="2.11"/>
    <rect class="cls-1" x="74.39" y="74.98" width="38.27" height="5.81" rx="2.11" ry="2.11"/>
    <rect class="cls-1" x="114.59" y="74.97" width="21.09" height="5.81" rx="2.11" ry="2.11"/>
    <rect class="cls-1" x="34.2" y="113.06" width="101.49" height="5.81" rx="2.11" ry="2.11"/>
    <rect class="cls-1" x="138.12" y="113.06" width="38.27" height="5.81" rx="2.11" ry="2.11"/>
    <rect class="cls-1" x="138.12" y="103.57" width="38.27" height="5.81" rx="2.11" ry="2.11"/>
    <rect class="cls-1" x="74.39" y="103.57" width="38.27" height="5.81" rx="2.11" ry="2.11"/>
    <rect class="cls-1" x="114.59" y="103.57" width="21.09" height="5.81" rx="2.11" ry="2.11"/>
    <rect class="cls-1" x="138.12" y="122.54" width="38.27" height="5.81" rx="2.11" ry="2.11"/>
    <rect class="cls-1" x="74.39" y="122.54" width="61.29" height="5.81" rx="2.11" ry="2.11"/>
    <polygon class="cls-3" points="28.55 20.73 10.46 42.16 39.92 47.2 28.55 20.73"/>
    <path class="cls-2" d="m236.33.32l2.14,10.73c.06.3.43.42.66.21l8.04-7.42c.32-.29.81.06.63.46l-4.57,9.93c-.13.28.1.59.41.56l10.86-1.28c.43-.05.62.53.24.74l-9.54,5.35c-.27.15-.27.54,0,.69l9.54,5.35c.38.21.19.79-.24.74l-10.86-1.28c-.31-.04-.53.28-.41.56l4.57,9.93c.18.39-.31.75-.63.46l-8.04-7.42c-.23-.21-.6-.09-.66.21l-2.14,10.73c-.08.42-.69.42-.78,0l-2.14-10.73c-.06-.3-.43-.42-.66-.21l-8.04,7.42c-.32.29-.81-.06-.63-.46l4.57-9.93c.13-.28-.1-.59-.41-.56l-10.86,1.28c-.43.05-.62-.53-.24-.74l9.54-5.35c.27-.15.27-.54,0-.69l-9.54-5.35c-.38-.21-.19-.79.24-.74l10.86,1.28c.31.04.53-.28.41-.56l-4.57-9.93c-.18-.39.31-.75.63-.46l8.04,7.42c.23.21.6.09.66-.21l2.14-10.73c.08-.42.69-.42.78,0Z"/>
  </g>
</svg>