<?xml version="1.0" encoding="UTF-8"?>
<svg id="Calque_2" data-name="Calque 2" xmlns="http://www.w3.org/2000/svg" viewBox="0 0 251.42 290.31">
  <defs>
    <style>
      .cls-1 {
        fill: #fff;
        stroke: #006aeb;
        stroke-miterlimit: 10;
        stroke-width: 2px;
      }

      .cls-2 {
        opacity: .3;
      }

      .cls-2, .cls-3 {
        fill: #c7f1ff;
      }

      .cls-2, .cls-3, .cls-4, .cls-5 {
        stroke-width: 0px;
      }

      .cls-4 {
        fill: #0061da;
      }

      .cls-5 {
        fill: #006aeb;
      }
    </style>
  </defs>
  <g id="Calque_1-2" data-name="Calque 1">
    <polygon class="cls-1" points="250.42 217.15 250.42 73.15 125.71 1.15 1 73.15 1 217.15 125.71 289.15 250.42 217.15"/>
    <circle class="cls-5" cx="129.9" cy="166.86" r="7.56"/>
    <path class="cls-3" d="m133.22,119.29v-32.78c0-.58.49-1.04,1.07-.98,6.65.68,42.52,5.25,59.67,25.79.15.18.23.41.23.65v36.4c0,.93-1.15,1.34-1.74.62-5.11-6.26-22.07-23.34-58.4-28.75-.48-.07-.84-.48-.84-.97Z"/>
    <polygon class="cls-5" points="174.8 141.95 164.72 153.9 181.15 156.71 174.8 141.95"/>
    <path class="cls-5" d="m90.52,127.49l1.58,7.94c.04.22.32.31.49.16l5.95-5.49c.24-.22.6.05.46.34l-3.38,7.35c-.1.21.07.44.3.41l8.04-.95c.32-.04.46.39.18.55l-7.06,3.96c-.2.11-.2.4,0,.51l7.06,3.96c.28.16.14.58-.18.55l-8.04-.95c-.23-.03-.4.21-.3.41l3.38,7.35c.13.29-.23.55-.46.34l-5.95-5.49c-.17-.15-.44-.07-.49.16l-1.58,7.94c-.06.31-.51.31-.57,0l-1.58-7.94c-.04-.22-.32-.31-.49-.16l-5.95,5.49c-.24.22-.6-.05-.46-.34l3.38-7.35c.1-.21-.07-.44-.3-.41l-8.04.95c-.32.04-.46-.39-.18-.55l7.06-3.96c.2-.11.2-.4,0-.51l-7.06-3.96c-.28-.16-.14-.58.18-.55l8.04.95c.23.03.4-.21.3-.41l-3.38-7.35c-.13-.29.23-.55.46-.34l5.95,5.49c.17.15.44.07.49-.16l1.58-7.94c.06-.31.51-.31.57,0Z"/>
    <path class="cls-5" d="m136.77,72.7l1.58,7.94c.04.22.32.31.49.16l5.95-5.49c.24-.22.6.05.46.34l-3.38,7.35c-.1.21.07.44.3.41l8.04-.95c.32-.04.46.39.18.55l-7.06,3.96c-.2.11-.2.4,0,.51l7.06,3.96c.28.16.14.58-.18.55l-8.04-.95c-.23-.03-.4.21-.3.41l3.38,7.35c.13.29-.23.55-.46.34l-5.95-5.49c-.17-.15-.44-.07-.49.16l-1.58,7.94c-.06.31-.51.31-.57,0l-1.58-7.94c-.04-.22-.32-.31-.49-.16l-5.95,5.49c-.24.22-.6-.05-.46-.34l3.38-7.35c.1-.21-.07-.44-.3-.41l-8.04.95c-.32.04-.46-.39-.18-.55l7.06-3.96c.2-.11.2-.4,0-.51l-7.06-3.96c-.28-.16-.14-.58.18-.55l8.04.95c.23.03.4-.21.3-.41l-3.38-7.35c-.13-.29.23-.55.46-.34l5.95,5.49c.17.15.44.07.49-.16l1.58-7.94c.06-.31.51-.31.57,0Z"/>
    <path class="cls-3" d="m66.99,130.03v-26.39c0-.36.2-.7.52-.87,2.81-1.47,16.6-8.37,33.41-11.04.6-.09,1.15.37,1.15.98v24.3c0,.5-.37.92-.86.98-2.8.3-12.61,2.1-32.76,12.9-.66.35-1.46-.11-1.46-.86Z"/>
    <path class="cls-3" d="m45.89,94.16v11.86c0,.85.99,1.3,1.63.74,2.47-2.19,7.32-6.16,11.6-7.71.39-.14.65-.5.65-.91v-11.38c0-.68-.67-1.15-1.32-.92-2.11.75-6.6,2.75-12.2,7.56-.22.19-.35.47-.35.76Z"/>
    <path class="cls-3" d="m103.27,68.55v8.58c0,.6.53,1.07,1.13.97,4.14-.65,19-2.63,33-.04.6.11,1.16-.34,1.16-.95v-8.61c0-.49-.34-.9-.82-.97-3.16-.49-15.31-2.01-33.58.04-.5.06-.89.48-.89.98Z"/>
    <path class="cls-3" d="m167.16,60.64v26.05c0,.4.24.76.62.91,3.52,1.38,21.39,8.77,33.63,21.4.62.64,1.7.22,1.7-.67v-28.76c0-.27-.1-.52-.3-.71-1.99-1.85-13.79-12.28-34.34-19.15-.64-.21-1.31.27-1.31.94Z"/>
    <g>
      <path class="cls-2" d="m148.77,202.31c0,.59-.48,1.07-1.07,1.07l-50.86-7.38c-.59,0-1.07-.48-1.07-1.07v-114.61c0-.59.48-1.07,1.07-1.07l50.86,7.38c.59,0,1.07.48,1.07,1.07v114.61Z"/>
      <g>
        <path class="cls-4" d="m150.88,210.93c2.6,0,7.66-2.39,7.74-6.21l.46-123.86c0-2.6-2.11-4.71-4.71-4.71l-56.33-6.5c-5.21,0-8.36,4.44-8.36,7.04l11.35-1.15,50.86,7.38c.59,0,1.07.48,1.07,1.07v114.61c0,.59-.48,1.07-1.07,1.07l-1.03,11.26Z"/>
        <path class="cls-5" d="m150.17,79.86l-55.8-7.38c-2.6,0-4.71,2.11-4.71,4.71v121.78c0,2.6,2.11,4.71,4.71,4.71l55.8,7.38c2.6,0,4.71-2.11,4.71-4.71v-121.78c0-2.6-2.11-4.71-4.71-4.71Zm-1.4,122.44c0,.59-.48,1.07-1.07,1.07l-50.86-7.38c-.59,0-1.07-.48-1.07-1.07v-114.61c0-.59.48-1.07,1.07-1.07l50.86,7.38c.59,0,1.07.48,1.07,1.07v114.61Z"/>
        <path class="cls-5" d="m104.37,77.67l6.44,6.12c.84.8,1.98,1.32,3.22,1.48l14.74,2.16c1.22.15,2.44-.06,3.44-.61l7.96-4.35-35.8-4.79Z"/>
      </g>
    </g>
    <path class="cls-3" d="m40.93,129.5v41.77c0,.22.07.43.21.6,2.09,2.64,19.94,24.15,53.7,33.55.63.17,1.26-.3,1.26-.96v-40.39c0-.42-.26-.79-.65-.93-4.85-1.68-35.54-12.94-52.76-34.25-.59-.73-1.76-.34-1.76.6Z"/>
    <path class="cls-3" d="m102.08,181.65l1.02,49c.01.52.43.95.95.96,7.85.24,63.37.77,99.76-31.05.22-.19.34-.47.34-.75v-51.52c0-.85-1-1.3-1.63-.74-7.5,6.67-40.88,33.03-99.46,33.11-.55,0-1,.45-.98,1Z"/>
    <polygon class="cls-3" points="85.1 59.96 80.81 78.25 99.93 72.31 85.1 59.96"/>
  </g>
</svg>